<svg width="16" height="16" viewBox="0 0 16 16" fill="none" xmlns="http://www.w3.org/2000/svg">
<path d="M10.8411 8L10.5643 7.58363C10.5485 7.59415 10.5333 7.60555 10.5187 7.6178L10.8411 8ZM6.09865 12L5.66585 11.7496L6.09865 12ZM3.5 13C2.11929 13 1 11.8807 1 10.5H0C0 12.433 1.567 14 3.5 14V13ZM1 10.5C1 9.11929 2.11929 8 3.5 8V7C1.567 7 0 8.567 0 10.5H1ZM3.5 8C4.88071 8 6 9.11929 6 10.5H7C7 8.567 5.433 7 3.5 7V8ZM15 10.5C15 11.8807 13.8807 13 12.5 13V14C14.433 14 16 12.433 16 10.5H15ZM12.5 8C13.8807 8 15 9.11929 15 10.5H16C16 8.567 14.433 7 12.5 7V8ZM11.1179 8.41637C11.5136 8.15329 11.9881 8 12.5 8V7C11.7851 7 11.1189 7.21486 10.5643 7.58363L11.1179 8.41637ZM6 10.5C6 10.9562 5.87827 11.3824 5.66585 11.7496L6.53146 12.2504C6.82955 11.7351 7 11.1367 7 10.5H6ZM5.66585 11.7496C5.23283 12.4982 4.42472 13 3.5 13V14C4.79612 14 5.92704 13.2952 6.53146 12.2504L5.66585 11.7496ZM10.5187 7.6178L5.77629 11.6178L6.42102 12.3822L11.1635 8.3822L10.5187 7.6178ZM12.5 13C11.2138 13 10.1539 12.0283 10.0154 10.7793L9.02148 10.8896C9.21558 12.6395 10.6986 14 12.5 14V13Z" fill="#082949"/>
<circle cx="8" cy="5" r="4" stroke="#082949" stroke-linejoin="round"/>
</svg>
