<svg width="16" height="16" viewBox="0 0 16 16" fill="none" xmlns="http://www.w3.org/2000/svg">
<path d="M2.5 8C3.32843 8 4 7.2165 4 6.25C4 5.2835 3.32843 4.5 2.5 4.5C1.67157 4.5 1 5.2835 1 6.25C1 7.2165 1.67157 8 2.5 8Z" stroke="#082949" stroke-linejoin="round"/>
<path d="M13.5 8C14.3284 8 15 7.2165 15 6.25C15 5.2835 14.3284 4.5 13.5 4.5C12.6716 4.5 12 5.2835 12 6.25C12 7.2165 12.6716 8 13.5 8Z" stroke="#082949" stroke-linejoin="round"/>
<path d="M5.5 4C6.32843 4 7 3.2165 7 2.25C7 1.2835 6.32843 0.5 5.5 0.5C4.67157 0.5 4 1.2835 4 2.25C4 3.2165 4.67157 4 5.5 4Z" stroke="#082949" stroke-linejoin="round"/>
<path d="M10.5 4C11.3284 4 12 3.2165 12 2.25C12 1.2835 11.3284 0.5 10.5 0.5C9.67157 0.5 9 1.2835 9 2.25C9 3.2165 9.67157 4 10.5 4Z" stroke="#082949" stroke-linejoin="round"/>
<path d="M4.03757 11.8827L4.45227 12.162L4.03757 11.8827ZM11.9624 11.8827L12.3771 11.6033L11.9624 11.8827ZM9.65879 8.46266L10.0735 8.18333L9.65879 8.46266ZM6.34121 8.46267L5.92651 8.18334V8.18334L6.34121 8.46267ZM10.5182 14.9891L10.4671 14.4917L10.5182 14.9891ZM10.094 14.9545L9.98791 15.4431L10.094 14.9545ZM7.15157 14.6841L7.04552 14.1955L7.15157 14.6841ZM5.48176 14.9891L5.43066 15.4865L5.48176 14.9891ZM5.90603 14.9545L5.79998 14.4659L5.90603 14.9545ZM9.24409 8.74199L11.5477 12.162L12.3771 11.6033L10.0735 8.18333L9.24409 8.74199ZM4.45227 12.162L6.7559 8.742L5.92651 8.18334L3.62288 11.6033L4.45227 12.162ZM3.62288 11.6033C2.55437 13.1897 3.59139 15.2975 5.43066 15.4865L5.53286 14.4917C4.43223 14.3786 3.81262 13.1116 4.45227 12.162L3.62288 11.6033ZM11.5477 12.162C12.1874 13.1116 11.5678 14.3786 10.4671 14.4917L10.5693 15.4865C12.4086 15.2975 13.4456 13.1897 12.3771 11.6033L11.5477 12.162ZM10.0735 8.18333C9.08257 6.7122 6.91743 6.71221 5.92651 8.18334L6.7559 8.742C7.35046 7.85932 8.64955 7.85932 9.24409 8.74199L10.0735 8.18333ZM10.2 14.4659L8.95451 14.1955L8.7424 15.1728L9.98791 15.4431L10.2 14.4659ZM7.04552 14.1955L5.79998 14.4659L6.01209 15.4431L7.25763 15.1728L7.04552 14.1955ZM10.4671 14.4917C10.4005 14.4986 10.3162 14.4911 10.2 14.4659L9.98791 15.4431C10.1505 15.4784 10.3523 15.5088 10.5693 15.4865L10.4671 14.4917ZM8.95451 14.1955C8.3255 14.059 7.67453 14.059 7.04552 14.1955L7.25763 15.1728C7.74686 15.0666 8.25317 15.0666 8.7424 15.1728L8.95451 14.1955ZM5.43066 15.4865C5.64772 15.5088 5.84948 15.4784 6.01209 15.4431L5.79998 14.4659C5.68383 14.4911 5.59955 14.4986 5.53286 14.4917L5.43066 15.4865Z" fill="#082949"/>
</svg>
