<svg width="16" height="16" viewBox="0 0 16 16" fill="none" xmlns="http://www.w3.org/2000/svg">
<path fill-rule="evenodd" clip-rule="evenodd" d="M6.33286 0.5L6.24072 0.968204L5.88822 2.68142C5.32465 2.89677 4.81357 3.20216 4.35179 3.5643L2.62893 2.98786L2.16608 2.84429L1.92608 3.25786L0.739999 5.24211L0.5 5.65574L0.851432 5.96323L2.18429 7.09785C2.13608 7.39463 2.07394 7.68818 2.07394 7.99997C2.07394 8.31175 2.13608 8.60537 2.18429 8.90215L0.851432 10.0368L0.5 10.3443L0.739999 10.7578L1.92608 12.7421L2.16608 13.1568L2.62893 13.0121L4.35179 12.4357C4.81357 12.7978 5.32465 13.1032 5.88822 13.3185L6.24072 15.0317L6.33286 15.5H9.66608L9.75928 15.0317L10.1107 13.3185C10.6743 13.1032 11.1854 12.7978 11.6471 12.4357L13.37 13.0121L13.8329 13.1568L14.0739 12.7421L15.2589 10.7578L15.5 10.3443L15.1475 10.0368L13.8146 8.90215C13.8639 8.60537 13.925 8.31175 13.925 7.99997C13.925 7.68818 13.8639 7.39463 13.8146 7.09785L15.1475 5.96323L15.5 5.65574L15.2589 5.24211L14.0739 3.25786L13.8329 2.84429L13.37 2.98786L11.6471 3.5643C11.1854 3.20216 10.6743 2.89677 10.1107 2.68142L9.75928 0.968204L9.66608 0.5H6.33286Z" stroke="#082949" stroke-linecap="square" stroke-linejoin="round"/>
<path fill-rule="evenodd" clip-rule="evenodd" d="M10.1425 7.99997C10.1425 9.18282 9.18246 10.1428 7.99961 10.1428C6.81675 10.1428 5.85675 9.18282 5.85675 7.99997C5.85675 6.81711 6.81675 5.85716 7.99961 5.85716C9.18246 5.85716 10.1425 6.81711 10.1425 7.99997Z" stroke="#082949" stroke-linecap="square" stroke-linejoin="round"/>
</svg>
