<svg width="16" height="16" viewBox="0 0 16 16" fill="none" xmlns="http://www.w3.org/2000/svg">
<path d="M7.5 6V6C7.5 4.61929 6.38071 3.5 5 3.5H4.5C2.84315 3.5 1.5 4.84315 1.5 6.5V9.5C1.5 11.1569 2.84315 12.5 4.5 12.5V12.5C6.15685 12.5 7.5 11.1569 7.5 9.5V8H4.5" stroke="#082949" stroke-linejoin="round"/>
<path d="M9.5 10V6C9.5 4.61929 10.6193 3.5 12 3.5C13.3807 3.5 14.5 4.61929 14.5 6V10C14.5 11.3807 13.3807 12.5 12 12.5C10.6193 12.5 9.5 11.3807 9.5 10Z" stroke="#082949" stroke-linejoin="round"/>
</svg>
