<svg width="16" height="16" viewBox="0 0 16 16" fill="none" xmlns="http://www.w3.org/2000/svg">
<path d="M0.5 5.5L1.5 5V8M2.5 5H5.5V6L3 6.5V7.5H6M6.5 5.5L7.5 5V8M8.5 5H11.5V6L9 6.5V7.5H12M12.5 5H15V6.25M12.5 7.5H15V6.25M12.5 6.25H15" stroke="#082949" stroke-linejoin="round"/>
<path d="M3.546 9.0587C3.6288 9.0587 3.699 9.0758 3.7566 9.11C3.816 9.1424 3.8457 9.1964 3.8457 9.272C3.8457 9.3458 3.8223 9.3827 3.7755 9.3827C3.7359 9.3827 3.6684 9.3404 3.573 9.2558C3.4794 9.1694 3.4326 9.1154 3.4326 9.0938C3.4326 9.0704 3.4704 9.0587 3.546 9.0587ZM3.1275 9.5933C3.2625 9.5825 3.4488 9.5591 3.6864 9.5231C3.924 9.4853 4.059 9.4601 4.0914 9.4475C4.1238 9.4349 4.158 9.4286 4.194 9.4286C4.23 9.4286 4.2912 9.4601 4.3776 9.5231C4.464 9.5861 4.5072 9.6329 4.5072 9.6635C4.5072 9.6923 4.4856 9.7076 4.4424 9.7094C4.3452 9.7148 4.2336 9.7544 4.1076 9.8282C4.0896 9.839 4.0752 9.8444 4.0644 9.8444C4.0536 9.8444 4.0482 9.8381 4.0482 9.8255C4.0482 9.8129 4.0644 9.7778 4.0968 9.7202C4.1292 9.6626 4.1454 9.623 4.1454 9.6014C4.1454 9.578 4.131 9.5663 4.1022 9.5663C4.0752 9.5663 3.9969 9.5726 3.8673 9.5852C3.7395 9.5978 3.6018 9.6176 3.4542 9.6446C3.3084 9.6716 3.2004 9.6833 3.1302 9.6797C3.1248 9.7535 3.0951 9.8327 3.0411 9.9173C2.9889 10.0019 2.9457 10.0442 2.9115 10.0442C2.8953 10.0442 2.8827 10.0343 2.8737 10.0145C2.8647 9.9929 2.8602 9.9668 2.8602 9.9362C2.8602 9.8876 2.8737 9.8435 2.9007 9.8039C2.9295 9.7643 2.9556 9.7193 2.979 9.6689C3.0024 9.6167 3.0177 9.5735 3.0249 9.5393C3.0321 9.5033 3.0411 9.4853 3.0519 9.4853C3.0627 9.4853 3.0771 9.4961 3.0951 9.5177C3.1149 9.5375 3.1257 9.5627 3.1275 9.5933ZM4.0644 10.1441C4.2408 10.1207 4.3614 10.1018 4.4262 10.0874C4.4928 10.073 4.5567 10.0658 4.6179 10.0658C4.6791 10.0658 4.7385 10.0865 4.7961 10.1279C4.8555 10.1675 4.8852 10.2035 4.8852 10.2359C4.8852 10.2665 4.8474 10.2818 4.7718 10.2818C4.725 10.2818 4.6701 10.2755 4.6071 10.2629C4.5441 10.2503 4.4685 10.244 4.3803 10.244C4.2921 10.244 4.1841 10.2485 4.0563 10.2575C4.0563 10.2845 4.0302 10.3493 3.978 10.4519C3.9276 10.5545 3.8754 10.6454 3.8214 10.7246C4.2156 10.8956 4.4127 11.0729 4.4127 11.2565C4.4127 11.3051 4.3947 11.3294 4.3587 11.3294C4.3335 11.3294 4.3056 11.315 4.275 11.2862C4.1076 11.1224 3.9222 10.9703 3.7188 10.8299C3.5982 10.9469 3.4686 11.036 3.33 11.0972C3.1914 11.1584 3.0546 11.189 2.9196 11.189C2.8818 11.189 2.8629 11.1818 2.8629 11.1674C2.8629 11.1548 2.88 11.1431 2.9142 11.1323C3.042 11.0945 3.1707 11.0423 3.3003 10.9757C3.4299 10.9073 3.5316 10.838 3.6054 10.7678C3.483 10.712 3.366 10.6652 3.2544 10.6274C3.204 10.6112 3.1788 10.5932 3.1788 10.5734C3.1788 10.5536 3.1932 10.523 3.222 10.4816C3.2508 10.4384 3.2751 10.3916 3.2949 10.3412C3.0051 10.3808 2.8206 10.4114 2.7414 10.433C2.6622 10.4546 2.6064 10.4654 2.574 10.4654C2.5416 10.4654 2.5038 10.451 2.4606 10.4222C2.4192 10.3916 2.3985 10.3709 2.3985 10.3601C2.3985 10.3475 2.4183 10.3403 2.4579 10.3385C2.5551 10.3367 2.8458 10.3043 3.33 10.2413C3.3948 10.0541 3.4272 9.9281 3.4272 9.8633C3.4272 9.8435 3.4245 9.8264 3.4191 9.812C3.4155 9.7958 3.4137 9.7823 3.4137 9.7715C3.4137 9.7463 3.4263 9.7337 3.4515 9.7337C3.4785 9.7337 3.5199 9.7463 3.5757 9.7715C3.6315 9.7949 3.6594 9.8174 3.6594 9.839C3.6594 9.8588 3.6495 9.8813 3.6297 9.9065C3.5973 9.9533 3.5433 10.0595 3.4677 10.2251C3.6621 10.1999 3.798 10.1819 3.8754 10.1711C3.8664 10.1243 3.8619 10.0982 3.8619 10.0928C3.8619 10.0694 3.8709 10.0577 3.8889 10.0577C3.9087 10.0577 3.9411 10.0703 3.9861 10.0955C4.0311 10.1189 4.0572 10.1351 4.0644 10.1441ZM3.8754 10.2764C3.726 10.289 3.5757 10.3043 3.4245 10.3223C3.4083 10.3619 3.3786 10.424 3.3354 10.5086C3.33 10.5194 3.3273 10.5266 3.3273 10.5302C3.3273 10.5428 3.3507 10.5563 3.3975 10.5707C3.4551 10.5851 3.5505 10.6184 3.6837 10.6706C3.7899 10.5392 3.8538 10.4078 3.8754 10.2764Z" fill="#082949"/>
<path d="M6.3837 9.3827C6.5709 9.5591 6.7293 9.6959 6.8589 9.7931C6.9885 9.8885 7.1037 9.9596 7.2045 10.0064C7.3071 10.0514 7.4223 10.0892 7.5501 10.1198C7.6059 10.1324 7.6338 10.1468 7.6338 10.163C7.6338 10.172 7.6248 10.1801 7.6068 10.1873C7.5906 10.1927 7.5357 10.2017 7.4421 10.2143C7.3485 10.2251 7.2702 10.2305 7.2072 10.2305C7.146 10.2305 7.0965 10.217 7.0587 10.19C7.0209 10.1612 6.912 10.055 6.732 9.8714C6.552 9.686 6.4206 9.5474 6.3378 9.4556C6.2172 9.659 6.0903 9.8291 5.9571 9.9659C5.8257 10.1009 5.6862 10.2125 5.5386 10.3007C5.3928 10.3889 5.3019 10.433 5.2659 10.433C5.2515 10.433 5.2443 10.4267 5.2443 10.4141C5.2443 10.4015 5.2632 10.3835 5.301 10.3601C5.4522 10.2647 5.6034 10.1378 5.7546 9.9794C5.9076 9.821 6.0309 9.6599 6.1245 9.4961C6.2181 9.3305 6.2595 9.218 6.2487 9.1586C6.2451 9.146 6.2433 9.1343 6.2433 9.1235C6.2433 9.0929 6.2568 9.0776 6.2838 9.0776C6.3126 9.0776 6.354 9.0965 6.408 9.1343C6.4638 9.1703 6.4917 9.2018 6.4917 9.2288C6.4917 9.2558 6.4791 9.2801 6.4539 9.3017C6.4287 9.3233 6.4053 9.3503 6.3837 9.3827ZM6.3918 11.0189C6.5628 11.0027 6.7005 10.9883 6.8049 10.9757C6.8877 10.9613 6.9606 10.9541 7.0236 10.9541C7.0884 10.9541 7.1487 10.9748 7.2045 11.0162C7.2603 11.0576 7.2882 11.0927 7.2882 11.1215C7.2882 11.1521 7.2603 11.1674 7.2045 11.1674C7.1829 11.1674 7.1586 11.1647 7.1316 11.1593C7.0038 11.1359 6.8553 11.1242 6.6861 11.1242C6.3405 11.1242 6.0399 11.1521 5.7843 11.2079C5.7195 11.2205 5.6682 11.2268 5.6304 11.2268C5.5944 11.2268 5.553 11.2106 5.5062 11.1782C5.4594 11.1458 5.436 11.1224 5.436 11.108C5.436 11.0954 5.4612 11.0891 5.5116 11.0891C5.5854 11.0891 5.8311 11.0702 6.2487 11.0324L6.2568 10.6922C6.1758 10.7012 6.1119 10.7057 6.0651 10.7057C6.0183 10.7057 5.976 10.6985 5.9382 10.6841C5.9004 10.6679 5.8815 10.6526 5.8815 10.6382C5.8815 10.622 5.9076 10.6112 5.9598 10.6058C6.0138 10.6004 6.1128 10.586 6.2568 10.5626C6.2604 10.3862 6.2514 10.28 6.2298 10.244C6.183 10.2494 6.1326 10.2521 6.0786 10.2521C6.0264 10.2521 5.9832 10.2467 5.949 10.2359C5.9148 10.2233 5.8977 10.2107 5.8977 10.1981C5.8977 10.1783 5.9247 10.1684 5.9787 10.1684C6.0111 10.1684 6.0948 10.1558 6.2298 10.1306C6.3648 10.1054 6.4521 10.0847 6.4917 10.0685C6.5313 10.0505 6.5718 10.0415 6.6132 10.0415C6.6564 10.0415 6.6978 10.0514 6.7374 10.0712C6.777 10.0892 6.7968 10.1045 6.7968 10.1171C6.7968 10.1297 6.7698 10.1441 6.7158 10.1603C6.6618 10.1747 6.5403 10.1972 6.3513 10.2278C6.4035 10.2458 6.4296 10.2719 6.4296 10.3061C6.4296 10.3169 6.4269 10.3304 6.4215 10.3466C6.4179 10.361 6.4116 10.4249 6.4026 10.5383L6.5403 10.514C6.5817 10.5068 6.6204 10.5032 6.6564 10.5032C6.6942 10.5032 6.7284 10.5122 6.759 10.5302C6.7896 10.5464 6.8049 10.5608 6.8049 10.5734C6.8049 10.613 6.6699 10.6472 6.3999 10.676L6.3918 11.0189Z" fill="#082949"/>
<path d="M8.0388 10.0523C8.0802 10.0523 8.1162 10.0667 8.1468 10.0955C8.1774 10.1225 8.1927 10.1567 8.1927 10.1981C8.1927 10.2395 8.1783 10.2746 8.1495 10.3034C8.1207 10.3322 8.0847 10.3466 8.0415 10.3466C8.0001 10.3466 7.965 10.3313 7.9362 10.3007C7.9074 10.2701 7.893 10.2359 7.893 10.1981C7.893 10.1585 7.9074 10.1243 7.9362 10.0955C7.9668 10.0667 8.001 10.0523 8.0388 10.0523Z" fill="#082949"/>
<path d="M9.25384 9.7418C9.34924 9.7238 9.40684 9.7103 9.42664 9.7013C9.46264 9.6833 9.49234 9.6743 9.51574 9.6743C9.53914 9.6743 9.58504 9.6887 9.65344 9.7175C9.72184 9.7445 9.75604 9.7724 9.75604 9.8012C9.75604 9.8156 9.74884 9.8273 9.73444 9.8363C9.72184 9.8453 9.70654 9.8633 9.68854 9.8903C9.67054 9.9173 9.65794 9.9479 9.65074 9.9821C9.64534 10.0145 9.62824 10.082 9.59944 10.1846C9.57064 10.2872 9.54454 10.3565 9.52114 10.3925C9.49774 10.4285 9.47794 10.4465 9.46174 10.4465C9.44554 10.4465 9.43204 10.4384 9.42124 10.4222C9.41764 10.4186 9.39874 10.4168 9.36454 10.4168C9.33214 10.4168 9.29164 10.4213 9.24304 10.4303C9.24304 10.6391 9.24394 10.766 9.24574 10.811C9.24934 10.8542 9.25114 10.9055 9.25114 10.9649C9.25114 11.1917 9.22954 11.3051 9.18634 11.3051C9.16654 11.3051 9.14404 11.2808 9.11884 11.2322C9.09364 11.1854 9.08104 11.1386 9.08104 11.0918C9.08104 11.045 9.08464 11.0045 9.09184 10.9703C9.10984 10.8875 9.12424 10.7165 9.13504 10.4573C9.08104 10.4699 9.01804 10.4762 8.94604 10.4762C8.94604 10.5176 8.94064 10.5428 8.92984 10.5518C8.91904 10.5608 8.90734 10.5653 8.89474 10.5653C8.88214 10.5653 8.86864 10.5491 8.85424 10.5167C8.83984 10.4825 8.82994 10.4366 8.82454 10.379C8.79754 10.1126 8.75344 9.9434 8.69224 9.8714C8.67604 9.8516 8.66794 9.8345 8.66794 9.8201C8.66794 9.8057 8.68144 9.7985 8.70844 9.7985C8.73724 9.7985 8.77234 9.8039 8.81374 9.8147C8.92174 9.8039 9.03334 9.7868 9.14854 9.7634C9.15034 9.587 9.14584 9.4538 9.13504 9.3638C9.12604 9.272 9.10444 9.1964 9.07024 9.137C9.05944 9.1172 9.05404 9.0992 9.05404 9.083C9.05404 9.065 9.06664 9.056 9.09184 9.056C9.11704 9.056 9.15934 9.0704 9.21874 9.0992C9.27994 9.128 9.31054 9.1604 9.31054 9.1964C9.31054 9.209 9.30694 9.2252 9.29974 9.245C9.27994 9.3026 9.26464 9.4682 9.25384 9.7418ZM9.24304 10.3601C9.26104 10.3583 9.29074 10.3565 9.33214 10.3547C9.37354 10.3529 9.39964 10.3493 9.41044 10.3439C9.42124 10.3367 9.43114 10.3187 9.44014 10.2899C9.45094 10.2593 9.46534 10.1963 9.48334 10.1009C9.50134 10.0037 9.51034 9.9344 9.51034 9.893C9.51034 9.8516 9.50404 9.8255 9.49144 9.8147C9.47884 9.8021 9.45004 9.7958 9.40504 9.7958C9.36004 9.7958 9.30874 9.8021 9.25114 9.8147L9.24574 10.0199C9.27274 10.0145 9.29974 10.0118 9.32674 10.0118C9.35554 10.0118 9.37804 10.0172 9.39424 10.028C9.41224 10.037 9.42124 10.0487 9.42124 10.0631C9.42124 10.0757 9.40774 10.0874 9.38074 10.0982C9.35554 10.1072 9.31054 10.1207 9.24574 10.1387C9.24574 10.2413 9.24484 10.3151 9.24304 10.3601ZM9.14854 9.8363C9.07654 9.8507 8.98294 9.8633 8.86774 9.8741C8.90554 10.0037 8.93164 10.1828 8.94604 10.4114C9.00184 10.4078 9.06574 10.3979 9.13774 10.3817C9.13954 10.2863 9.14224 10.2125 9.14584 10.1603C9.11704 10.1639 9.09094 10.1657 9.06754 10.1657C9.00094 10.1657 8.96764 10.1504 8.96764 10.1198C8.96764 10.1054 8.98114 10.0955 9.00814 10.0901C9.03694 10.0847 9.08284 10.073 9.14584 10.055C9.14764 10.0118 9.14854 9.9389 9.14854 9.8363ZM9.94234 10.028C10.0521 10.0118 10.1835 9.9893 10.3365 9.9605C10.4913 9.9317 10.5858 9.911 10.62 9.8984C10.6542 9.884 10.6875 9.8768 10.7199 9.8768C10.7523 9.8768 10.7973 9.8984 10.8549 9.9416C10.9143 9.983 10.944 10.0136 10.944 10.0334C10.944 10.0532 10.9305 10.0748 10.9035 10.0982C10.8765 10.1216 10.8567 10.154 10.8441 10.1954C10.8333 10.2368 10.8243 10.3061 10.8171 10.4033C10.8027 10.5743 10.7703 10.7282 10.7199 10.865C10.6713 11 10.6155 11.0963 10.5525 11.1539C10.4913 11.2133 10.4472 11.243 10.4202 11.243C10.395 11.243 10.3761 11.2187 10.3635 11.1701C10.3527 11.1215 10.3176 11.0495 10.2582 10.9541C10.2456 10.9379 10.2393 10.9253 10.2393 10.9163C10.2393 10.9073 10.2438 10.9028 10.2528 10.9028C10.2636 10.9028 10.2879 10.91 10.3257 10.9244C10.3653 10.9388 10.4013 10.946 10.4337 10.946C10.4661 10.946 10.4922 10.9361 10.512 10.9163C10.5336 10.8947 10.5597 10.8389 10.5903 10.7489C10.6227 10.6589 10.6488 10.5482 10.6686 10.4168C10.6884 10.2836 10.6983 10.1747 10.6983 10.0901C10.6983 10.0577 10.6929 10.0361 10.6821 10.0253C10.6713 10.0145 10.6443 10.0091 10.6011 10.0091C10.5579 10.0091 10.485 10.0163 10.3824 10.0307C10.4472 10.0811 10.4796 10.1216 10.4796 10.1522C10.4796 10.1666 10.4742 10.181 10.4634 10.1954C10.4346 10.2386 10.4049 10.3016 10.3743 10.3844C10.3185 10.5266 10.2411 10.658 10.1421 10.7786C10.0431 10.8992 9.94504 10.9883 9.84784 11.0459C9.75244 11.1035 9.68764 11.1323 9.65344 11.1323C9.64084 11.1323 9.63454 11.1269 9.63454 11.1161C9.63454 11.1071 9.64714 11.0927 9.67234 11.0729C9.85414 10.9361 10.0035 10.7714 10.1205 10.5788C10.2375 10.3844 10.296 10.2206 10.296 10.0874C10.296 10.0712 10.2951 10.0559 10.2933 10.0415L10.0692 10.0847C10.1106 10.1297 10.1313 10.1594 10.1313 10.1738C10.1313 10.1882 10.1268 10.1999 10.1178 10.2089C10.0998 10.2269 10.0692 10.2728 10.026 10.3466C9.98464 10.4204 9.92884 10.496 9.85864 10.5734C9.78844 10.649 9.72094 10.7075 9.65614 10.7489C9.59134 10.7885 9.54814 10.8083 9.52654 10.8083C9.51754 10.8083 9.51304 10.8038 9.51304 10.7948C9.51304 10.784 9.52474 10.7678 9.54814 10.7462C9.64894 10.6544 9.74614 10.5446 9.83974 10.4168C9.93334 10.289 9.98284 10.1837 9.98824 10.1009C9.93604 10.1135 9.90094 10.1261 9.88294 10.1387C9.85234 10.1657 9.82894 10.1792 9.81274 10.1792C9.79654 10.1792 9.78304 10.1711 9.77224 10.1549C9.76144 10.1387 9.75604 10.1207 9.75604 10.1009C9.75604 10.0793 9.77944 10.0541 9.82624 10.0253C9.87484 9.9965 9.96304 9.8975 10.0908 9.7283C10.2186 9.5591 10.2825 9.4583 10.2825 9.4259C10.2825 9.4097 10.2717 9.4016 10.2501 9.4016C10.2159 9.4016 10.1565 9.4169 10.0719 9.4475C9.98914 9.4781 9.93334 9.4934 9.90454 9.4934C9.87574 9.4934 9.84424 9.4844 9.81004 9.4664C9.77584 9.4466 9.75874 9.4295 9.75874 9.4151C9.75874 9.3989 9.78034 9.389 9.82354 9.3854C9.92074 9.38 10.0098 9.3656 10.0908 9.3422C10.1736 9.317 10.233 9.29 10.269 9.2612C10.3068 9.2306 10.3374 9.2153 10.3608 9.2153C10.3842 9.2153 10.4256 9.2342 10.485 9.272C10.5444 9.3098 10.5741 9.3377 10.5741 9.3557C10.5741 9.3737 10.5624 9.3899 10.539 9.4043C10.4652 9.4493 10.3914 9.5195 10.3176 9.6149C10.2438 9.7085 10.1844 9.7805 10.1394 9.8309C10.0944 9.8813 10.0287 9.947 9.94234 10.028Z" fill="#082949"/>
<path d="M12.8529 9.5501C12.9033 9.4997 12.9474 9.4484 12.9852 9.3962C13.0248 9.344 13.0482 9.3107 13.0554 9.2963C13.0644 9.2801 13.0689 9.2648 13.0689 9.2504C13.0689 9.236 13.0608 9.2288 13.0446 9.2288C13.0284 9.2288 12.9825 9.2387 12.9069 9.2585C12.8313 9.2783 12.7287 9.3152 12.5991 9.3692C12.5559 9.3872 12.5181 9.3962 12.4857 9.3962C12.4533 9.3962 12.4182 9.3809 12.3804 9.3503C12.3444 9.3179 12.3264 9.2936 12.3264 9.2774C12.3264 9.2594 12.3516 9.2504 12.402 9.2504C12.4812 9.2504 12.5883 9.2387 12.7233 9.2153C12.8583 9.1919 12.9465 9.1694 12.9879 9.1478C13.0293 9.1262 13.0635 9.1154 13.0905 9.1154C13.1175 9.1154 13.1688 9.1352 13.2444 9.1748C13.3218 9.2144 13.3605 9.2477 13.3605 9.2747C13.3605 9.2945 13.3362 9.3125 13.2876 9.3287C13.2408 9.3449 13.1922 9.3692 13.1418 9.4016C13.0932 9.434 13.0068 9.4979 12.8826 9.5933C12.8862 9.6113 12.888 9.6275 12.888 9.6419C12.888 9.6905 12.8754 9.7148 12.8502 9.7148C12.8304 9.7148 12.7863 9.6869 12.7179 9.6311C12.6513 9.5735 12.618 9.5366 12.618 9.5204C12.618 9.5024 12.6369 9.4934 12.6747 9.4934C12.7539 9.4934 12.8133 9.5123 12.8529 9.5501ZM11.7081 9.3773C11.7999 9.3773 11.8737 9.3971 11.9295 9.4367C11.9871 9.4763 12.0159 9.5294 12.0159 9.596C12.0159 9.6194 12.0078 9.6392 11.9916 9.6554C11.9772 9.6716 11.9565 9.6797 11.9295 9.6797C11.9043 9.6797 11.8494 9.6383 11.7648 9.5555C11.682 9.4709 11.6406 9.4205 11.6406 9.4043C11.6406 9.3863 11.6631 9.3773 11.7081 9.3773ZM12.3858 9.8174C12.528 9.7976 12.6666 9.7742 12.8016 9.7472C12.9366 9.7184 13.0221 9.6968 13.0581 9.6824C13.0959 9.668 13.1292 9.6608 13.158 9.6608C13.1886 9.6608 13.2309 9.6761 13.2849 9.7067C13.3389 9.7355 13.3659 9.7598 13.3659 9.7796C13.3659 9.7994 13.3578 9.821 13.3416 9.8444C13.3254 9.866 13.3173 9.9029 13.3173 9.9551C13.3173 10.0073 13.3254 10.1171 13.3416 10.2845C13.3596 10.4519 13.3686 10.5455 13.3686 10.5653C13.3686 10.6553 13.3506 10.7408 13.3146 10.8218C13.2804 10.9028 13.248 10.9433 13.2174 10.9433C13.1994 10.9433 13.1805 10.928 13.1607 10.8974C13.1013 10.8002 13.059 10.739 13.0338 10.7138C13.0104 10.6886 12.9987 10.6715 12.9987 10.6625C12.9987 10.6535 13.0032 10.649 13.0122 10.649C13.023 10.649 13.0437 10.6535 13.0743 10.6625C13.1067 10.6715 13.1346 10.676 13.158 10.676C13.1814 10.676 13.1958 10.6652 13.2012 10.6436C13.2084 10.6202 13.212 10.5545 13.212 10.4465C13.212 10.3367 13.203 10.2089 13.185 10.0631C13.1688 9.9173 13.1553 9.8336 13.1445 9.812C13.1355 9.7886 13.1175 9.7769 13.0905 9.7769C13.0473 9.7769 12.9573 9.7913 12.8205 9.8201C12.8277 9.8291 12.8313 9.8597 12.8313 9.9119C12.8313 9.9623 12.8304 10.0073 12.8286 10.0469C12.8952 10.0289 12.9411 10.0199 12.9663 10.0199C12.9933 10.0199 13.0176 10.0235 13.0392 10.0307C13.0608 10.0379 13.0716 10.0478 13.0716 10.0604C13.0716 10.0712 13.0518 10.0829 13.0122 10.0955C12.9744 10.1081 12.9132 10.1243 12.8286 10.1441L12.8232 10.3331C12.8466 10.3277 12.87 10.3205 12.8934 10.3115C12.9168 10.3025 12.9429 10.298 12.9717 10.298C13.0005 10.298 13.0257 10.3025 13.0473 10.3115C13.0689 10.3205 13.0797 10.3322 13.0797 10.3466C13.0797 10.361 13.0608 10.3736 13.023 10.3844C12.987 10.3952 12.9195 10.4096 12.8205 10.4276C12.8151 10.6814 12.7917 10.8083 12.7503 10.8083C12.7143 10.8083 12.6999 10.6877 12.7071 10.4465C12.6513 10.4555 12.6081 10.46 12.5775 10.46C12.5487 10.46 12.528 10.4564 12.5154 10.4492C12.5046 10.442 12.4992 10.433 12.4992 10.4222C12.4992 10.4114 12.5181 10.4024 12.5559 10.3952C12.5955 10.388 12.6459 10.3772 12.7071 10.3628C12.7089 10.3124 12.7098 10.2476 12.7098 10.1684C12.6558 10.1756 12.6144 10.1792 12.5856 10.1792C12.5586 10.1792 12.5388 10.1765 12.5262 10.1711C12.5136 10.1639 12.5073 10.1567 12.5073 10.1495C12.5073 10.1369 12.5253 10.1261 12.5613 10.1171L12.7125 10.0766C12.7143 9.9614 12.7107 9.8849 12.7017 9.8471C12.6171 9.8651 12.5289 9.8786 12.4371 9.8876C12.4389 9.9704 12.4398 10.0523 12.4398 10.1333C12.4398 10.3979 12.4308 10.5707 12.4128 10.6517C12.3948 10.7327 12.3705 10.7732 12.3399 10.7732C12.3219 10.7732 12.3039 10.7561 12.2859 10.7219C12.2679 10.6859 12.2589 10.6571 12.2589 10.6355C12.2589 10.6121 12.2679 10.5743 12.2859 10.5221C12.3129 10.4411 12.3264 10.3043 12.3264 10.1117C12.3264 9.9965 12.312 9.9128 12.2832 9.8606C12.2742 9.8462 12.2697 9.8318 12.2697 9.8174C12.2697 9.803 12.2805 9.7958 12.3021 9.7958C12.3237 9.7958 12.3516 9.803 12.3858 9.8174ZM11.9106 10.7651C11.9718 10.7795 12.0474 10.8002 12.1374 10.8272C12.4398 10.9244 12.6684 10.9883 12.8232 11.0189C12.9798 11.0495 13.1193 11.0648 13.2417 11.0648C13.3641 11.0648 13.4667 11.0621 13.5495 11.0567L13.7547 11.0432C13.7943 11.0432 13.8141 11.0513 13.8141 11.0675C13.8141 11.0747 13.8096 11.081 13.8006 11.0864C13.7934 11.0936 13.7475 11.1134 13.6629 11.1458C13.5801 11.18 13.4811 11.2133 13.3659 11.2457C13.2507 11.2799 13.1733 11.297 13.1337 11.297C13.0959 11.297 13.0581 11.2925 13.0203 11.2835C12.9843 11.2745 12.8799 11.2358 12.7071 11.1674C12.5361 11.1008 12.3687 11.0324 12.2049 10.9622C12.0411 10.892 11.9151 10.8569 11.8269 10.8569C11.7405 10.8569 11.6604 10.8839 11.5866 10.9379C11.5668 10.9505 11.5443 10.9568 11.5191 10.9568C11.4957 10.9568 11.466 10.9433 11.43 10.9163C11.3958 10.8893 11.3787 10.8677 11.3787 10.8515C11.3787 10.8353 11.3967 10.8254 11.4327 10.8218C11.4939 10.8164 11.5722 10.7993 11.6676 10.7705C11.7216 10.7543 11.7711 10.748 11.8161 10.7516C11.8197 10.7336 11.8215 10.7147 11.8215 10.6949C11.8215 10.6319 11.808 10.5716 11.781 10.514C11.754 10.4564 11.7405 10.4015 11.7405 10.3493C11.7405 10.2971 11.7549 10.2314 11.7837 10.1522C11.7891 10.1396 11.7918 10.1297 11.7918 10.1225C11.7918 10.1153 11.7837 10.1117 11.7675 10.1117C11.7531 10.1117 11.7198 10.1207 11.6676 10.1387C11.6154 10.1549 11.5731 10.163 11.5407 10.163C11.5101 10.163 11.4822 10.1594 11.457 10.1522C11.4318 10.1432 11.4192 10.1342 11.4192 10.1252C11.4192 10.1108 11.4354 10.1009 11.4678 10.0955C11.502 10.0883 11.5479 10.073 11.6055 10.0496C11.6631 10.0244 11.7117 9.9983 11.7513 9.9713C11.7729 9.9551 11.7945 9.947 11.8161 9.947C11.8395 9.947 11.8773 9.9632 11.9295 9.9956C11.9835 10.0262 12.0105 10.0514 12.0105 10.0712C12.0105 10.091 12.0015 10.1099 11.9835 10.1279C11.8989 10.2107 11.8566 10.2872 11.8566 10.3574C11.8566 10.3862 11.8647 10.4141 11.8809 10.4411C11.9079 10.4897 11.9214 10.5545 11.9214 10.6355C11.9214 10.6769 11.9178 10.7201 11.9106 10.7651Z" fill="#082949"/>
<path d="M1.5 13C1.5 13 4 12 8 12C12 12 14.5 13 14.5 13" stroke="#082949" stroke-width="0.2" stroke-linejoin="round"/>
</svg>
