<svg width="16" height="16" viewBox="0 0 16 16" fill="none" xmlns="http://www.w3.org/2000/svg">
<path d="M11.5 8.5C13.7091 8.5 15.5 6.70914 15.5 4.5C15.5 4.1547 15.4562 3.81962 15.374 3.5L13.311 5.56301C12.5173 6.35664 11.2306 6.35664 10.437 5.56301C9.64336 4.76938 9.64336 3.48266 10.437 2.68903L12.5 0.626017C12.1804 0.543753 11.8453 0.5 11.5 0.5C9.29086 0.5 7.5 2.29086 7.5 4.5C7.5 4.80899 7.53503 5.10979 7.60135 5.39865L2 11C1.17157 11.8284 1.17157 13.1716 2 14C2.82843 14.8284 4.17157 14.8284 5 14L10.6013 8.39865C10.8902 8.46497 11.191 8.5 11.5 8.5Z" stroke="#082949" stroke-linejoin="round"/>
</svg>
