<svg width="16" height="16" viewBox="0 0 16 16" fill="none" xmlns="http://www.w3.org/2000/svg">
<path d="M5 10H3L1.5 15.5H14.5L13 10H11" stroke="#082949" stroke-linejoin="round"/>
<path d="M6.8913 3L7.5 1H8.5L9.1087 3M6.8913 3H9.1087M6.8913 3L6 5.92857M9.1087 3L10 5.92857M6 5.92857H10M6 5.92857L5.21739 8.5M10 5.92857L10.7826 8.5M5.21739 8.5C5.21739 8.5 6.5 9 8 9C9.5 9 10.7826 8.5 10.7826 8.5M5.21739 8.5L4.45652 11M10.7826 8.5L11.5435 11M4.45652 11L4 12.5C4 12.5 5.5 14 8 14C10.5 14 12 12.5 12 12.5L11.5435 11M4.45652 11C4.45652 11 6 12 8 12C10 12 11.5435 11 11.5435 11" stroke="#082949" stroke-linejoin="round"/>
</svg>
